
    <svg width="395" height="260" xmlns="http://www.w3.org/2000/svg">
      <rect width="100%" height="100%" fill="#0d1117" stroke="#30363d" rx="10" />
      <text x="20" y="35" fill="#f0f6fc" font-family="-apple-system,BlinkMacSystemFont,Segoe UI,Helvetica,Arial,sans-serif" font-size="16" font-weight="bold">Work by Domain</text>
      <path d="M 200 130 A 80 80 0 1 1 118.47241680040997 50.014585769852204 L 119.04526050025623 80.00911610615762 A 50 50 0 1 0 170 130 Z" fill="#58a6ff" stroke="#0d1117" stroke-width="2" /><path d="M 118.47241680040997 50.014585769852204 A 80 80 0 0 1 193.72416126875808 98.93960648642468 L 166.07760079297378 110.58725405401543 A 50 50 0 0 0 119.04526050025623 80.00911610615762 Z" fill="#3fb950" stroke="#0d1117" stroke-width="2" /><path d="M 193.72416126875808 98.93960648642468 A 80 80 0 0 1 199.68928928656175 122.95605415958671 L 169.80580580410108 125.5975338497417 A 50 50 0 0 0 166.07760079297378 110.58725405401543 Z" fill="#f0883e" stroke="#0d1117" stroke-width="2" /><path d="M 199.68928928656175 122.95605415958671 A 80 80 0 0 1 200 129.99999999999997 L 170 130 A 50 50 0 0 0 169.80580580410108 125.5975338497417 Z" fill="#bc8cff" stroke="#0d1117" stroke-width="2" />
      
      <rect x="260" y="60" width="12" height="12" fill="#58a6ff" rx="3" />
      <text x="280" y="70" fill="#8b949e" font-family="-apple-system,BlinkMacSystemFont,Segoe UI,Helvetica,Arial" font-size="12">AI / ML</text>
    
      <rect x="260" y="82" width="12" height="12" fill="#3fb950" rx="3" />
      <text x="280" y="92" fill="#8b949e" font-family="-apple-system,BlinkMacSystemFont,Segoe UI,Helvetica,Arial" font-size="12">Other</text>
    
      <rect x="260" y="104" width="12" height="12" fill="#f0883e" rx="3" />
      <text x="280" y="114" fill="#8b949e" font-family="-apple-system,BlinkMacSystemFont,Segoe UI,Helvetica,Arial" font-size="12">Web Apps</text>
    
      <rect x="260" y="126" width="12" height="12" fill="#bc8cff" rx="3" />
      <text x="280" y="136" fill="#8b949e" font-family="-apple-system,BlinkMacSystemFont,Segoe UI,Helvetica,Arial" font-size="12">Data Systems</text>
    
    </svg>
  