
    <svg width="800" height="100" xmlns="http://www.w3.org/2000/svg">
      <rect width="100%" height="100%" fill="#0d1117" stroke="#30363d" rx="10" />
      <text x="20" y="30" fill="#f0f6fc" font-family="-apple-system,BlinkMacSystemFont,Segoe UI,Helvetica,Arial,sans-serif" font-size="16" font-weight="bold">Pragash-Mohanarajah Tech Mix</text>
      <rect x="20" y="50" width="329.7345576857096" height="12" fill="#58a6ff" /><rect x="349.7345576857096" y="50" width="105.7102472984809" height="12" fill="#3fb950" /><rect x="455.4448049841905" y="50" width="72.48422436091214" height="12" fill="#f0883e" /><rect x="527.9290293451027" y="50" width="59.2501115633988" height="12" fill="#bc8cff" /><rect x="587.1791409085015" y="50" width="53.416065861074415" height="12" fill="#ff7b72" /><rect x="640.595206769576" y="50" width="31.2908728954243" height="12" fill="#6e7681" />
      
      <circle cx="20" cy="80" r="4" fill="#58a6ff" />
      <text x="30" y="83" fill="#8b949e" font-family="-apple-system,BlinkMacSystemFont,Segoe UI,Helvetica,Arial,sans-serif" font-size="10">C 43.4%</text>
    
      <circle cx="100" cy="80" r="4" fill="#3fb950" />
      <text x="110" y="83" fill="#8b949e" font-family="-apple-system,BlinkMacSystemFont,Segoe UI,Helvetica,Arial,sans-serif" font-size="10">Jupyter Notebook 13.9%</text>
    
      <circle cx="180" cy="80" r="4" fill="#f0883e" />
      <text x="190" y="83" fill="#8b949e" font-family="-apple-system,BlinkMacSystemFont,Segoe UI,Helvetica,Arial,sans-serif" font-size="10">Python 9.5%</text>
    
      <circle cx="260" cy="80" r="4" fill="#bc8cff" />
      <text x="270" y="83" fill="#8b949e" font-family="-apple-system,BlinkMacSystemFont,Segoe UI,Helvetica,Arial,sans-serif" font-size="10">TypeScript 7.8%</text>
    
      <circle cx="340" cy="80" r="4" fill="#ff7b72" />
      <text x="350" y="83" fill="#8b949e" font-family="-apple-system,BlinkMacSystemFont,Segoe UI,Helvetica,Arial,sans-serif" font-size="10">HTML 7.0%</text>
    
      <circle cx="420" cy="80" r="4" fill="#6e7681" />
      <text x="430" y="83" fill="#8b949e" font-family="-apple-system,BlinkMacSystemFont,Segoe UI,Helvetica,Arial,sans-serif" font-size="10">JavaScript 4.1%</text>
    
    </svg>
  