
    <svg width="800" height="100" xmlns="http://www.w3.org/2000/svg">
      <rect width="100%" height="100%" fill="#0d1117" stroke="#30363d" rx="10" />
      <text x="20" y="30" fill="#f0f6fc" font-family="-apple-system,BlinkMacSystemFont,Segoe UI,Helvetica,Arial,sans-serif" font-size="16" font-weight="bold">supabase Tech Mix</text>
      <rect x="20" y="50" width="522.3643897747295" height="12" fill="#58a6ff" /><rect x="542.3643897747295" y="50" width="205.23598535402064" height="12" fill="#3fb950" /><rect x="747.6003751287501" y="50" width="21.46345222564192" height="12" fill="#f0883e" /><rect x="769.0638273543921" y="50" width="3.2950293735677216" height="12" fill="#bc8cff" /><rect x="772.3588567279597" y="50" width="2.478193453409996" height="12" fill="#ff7b72" /><rect x="774.8370501813697" y="50" width="2.326483630569788" height="12" fill="#6e7681" />
      
      <circle cx="20" cy="80" r="4" fill="#58a6ff" />
      <text x="30" y="83" fill="#8b949e" font-family="-apple-system,BlinkMacSystemFont,Segoe UI,Helvetica,Arial,sans-serif" font-size="10">TypeScript 68.7%</text>
    
      <circle cx="100" cy="80" r="4" fill="#3fb950" />
      <text x="110" y="83" fill="#8b949e" font-family="-apple-system,BlinkMacSystemFont,Segoe UI,Helvetica,Arial,sans-serif" font-size="10">MDX 27.0%</text>
    
      <circle cx="180" cy="80" r="4" fill="#f0883e" />
      <text x="190" y="83" fill="#8b949e" font-family="-apple-system,BlinkMacSystemFont,Segoe UI,Helvetica,Arial,sans-serif" font-size="10">JavaScript 2.8%</text>
    
      <circle cx="260" cy="80" r="4" fill="#bc8cff" />
      <text x="270" y="83" fill="#8b949e" font-family="-apple-system,BlinkMacSystemFont,Segoe UI,Helvetica,Arial,sans-serif" font-size="10">CSS 0.4%</text>
    
      <circle cx="340" cy="80" r="4" fill="#ff7b72" />
      <text x="350" y="83" fill="#8b949e" font-family="-apple-system,BlinkMacSystemFont,Segoe UI,Helvetica,Arial,sans-serif" font-size="10">Shell 0.3%</text>
    
      <circle cx="420" cy="80" r="4" fill="#6e7681" />
      <text x="430" y="83" fill="#8b949e" font-family="-apple-system,BlinkMacSystemFont,Segoe UI,Helvetica,Arial,sans-serif" font-size="10">SCSS 0.3%</text>
    
    </svg>
  