
    <svg width="395" height="260" xmlns="http://www.w3.org/2000/svg">
      <rect width="100%" height="100%" fill="#0d1117" stroke="#30363d" rx="10" />
      <text x="20" y="35" fill="#f0f6fc" font-family="-apple-system,BlinkMacSystemFont,Segoe UI,Helvetica,Arial,sans-serif" font-size="16" font-weight="bold">Commits per Organization</text>
      <path d="M 200 130 A 80 80 0 1 1 62.64438453821683 74.22963712687482 L 84.15274033638552 95.14352320429677 A 50 50 0 1 0 170 130 Z" fill="#58a6ff" stroke="#0d1117" stroke-width="2" /><path d="M 62.64438453821683 74.22963712687482 A 80 80 0 0 1 193.447808863317 98.29165136470124 L 165.90488053957313 110.18228210293827 A 50 50 0 0 0 84.1527403363855 95.14352320429677 Z" fill="#3fb950" stroke="#0d1117" stroke-width="2" /><path d="M 193.447808863317 98.29165136470124 A 80 80 0 0 1 198.8461465483536 116.46171449275982 L 169.278841592721 121.53857155797489 A 50 50 0 0 0 165.90488053957313 110.18228210293827 Z" fill="#f0883e" stroke="#0d1117" stroke-width="2" /><path d="M 198.8461465483536 116.46171449275982 A 80 80 0 0 1 200 129.99999999999991 L 170 129.99999999999994 A 50 50 0 0 0 169.278841592721 121.53857155797489 Z" fill="#bc8cff" stroke="#0d1117" stroke-width="2" /><path d="M 200 129.99999999999991 A 80 80 0 0 1 200 129.99999999999991 L 170 129.99999999999994 A 50 50 0 0 0 170 129.99999999999994 Z" fill="#ff7b72" stroke="#0d1117" stroke-width="2" /><path d="M 200 129.99999999999991 A 80 80 0 0 1 200 129.99999999999991 L 170 129.99999999999994 A 50 50 0 0 0 170 129.99999999999994 Z" fill="#6e7681" stroke="#0d1117" stroke-width="2" />
      
      <rect x="260" y="60" width="12" height="12" fill="#58a6ff" rx="3" />
      <text x="280" y="70" fill="#8b949e" font-family="-apple-system,BlinkMacSystemFont,Segoe UI,Helvetica,Arial" font-size="12">Pragash-Mohanarajah</text>
    
      <rect x="260" y="82" width="12" height="12" fill="#3fb950" rx="3" />
      <text x="280" y="92" fill="#8b949e" font-family="-apple-system,BlinkMacSystemFont,Segoe UI,Helvetica,Arial" font-size="12">AxiaFunder</text>
    
      <rect x="260" y="104" width="12" height="12" fill="#f0883e" rx="3" />
      <text x="280" y="114" fill="#8b949e" font-family="-apple-system,BlinkMacSystemFont,Segoe UI,Helvetica,Arial" font-size="12">IB-Integrated-Design-Project-Group-M202</text>
    
      <rect x="260" y="126" width="12" height="12" fill="#bc8cff" rx="3" />
      <text x="280" y="136" fill="#8b949e" font-family="-apple-system,BlinkMacSystemFont,Segoe UI,Helvetica,Arial" font-size="12">hackcambridge</text>
    
      <rect x="260" y="148" width="12" height="12" fill="#ff7b72" rx="3" />
      <text x="280" y="158" fill="#8b949e" font-family="-apple-system,BlinkMacSystemFont,Segoe UI,Helvetica,Arial" font-size="12">supabase</text>
    
      <rect x="260" y="170" width="12" height="12" fill="#6e7681" rx="3" />
      <text x="280" y="180" fill="#8b949e" font-family="-apple-system,BlinkMacSystemFont,Segoe UI,Helvetica,Arial" font-size="12">Can3D-GenAI-Hackathon-Cambridge</text>
    
    </svg>
  