
    <svg width="395" height="260" xmlns="http://www.w3.org/2000/svg">
      <rect width="100%" height="100%" fill="#0d1117" stroke="#30363d" rx="10" />
      <text x="20" y="35" fill="#f0f6fc" font-family="-apple-system,BlinkMacSystemFont,Segoe UI,Helvetica,Arial,sans-serif" font-size="16" font-weight="bold">Commits per Organization</text>
      <path d="M 200 130 A 80 80 0 1 1 62.25494944994567 74.63295983193909 L 83.90934340621604 95.39559989496193 A 50 50 0 1 0 170 130 Z" fill="#58a6ff" stroke="#0d1117" stroke-width="2" /><path d="M 62.25494944994567 74.63295983193909 A 80 80 0 0 1 193.37293143401874 98.11876833027331 L 165.85808214626172 110.07423020642082 A 50 50 0 0 0 83.90934340621604 95.39559989496193 Z" fill="#3fb950" stroke="#0d1117" stroke-width="2" /><path d="M 193.37293143401874 98.11876833027331 A 80 80 0 0 1 198.8328053447596 116.38424436635098 L 169.27050334047473 121.49015272896936 A 50 50 0 0 0 165.85808214626172 110.07423020642082 Z" fill="#f0883e" stroke="#0d1117" stroke-width="2" /><path d="M 198.8328053447596 116.38424436635098 A 80 80 0 0 1 200 129.99999999999991 L 170 129.99999999999994 A 50 50 0 0 0 169.27050334047473 121.49015272896936 Z" fill="#bc8cff" stroke="#0d1117" stroke-width="2" /><path d="M 200 129.99999999999991 A 80 80 0 0 1 200 129.99999999999991 L 170 129.99999999999994 A 50 50 0 0 0 170 129.99999999999994 Z" fill="#ff7b72" stroke="#0d1117" stroke-width="2" /><path d="M 200 129.99999999999991 A 80 80 0 0 1 200 129.99999999999991 L 170 129.99999999999994 A 50 50 0 0 0 170 129.99999999999994 Z" fill="#6e7681" stroke="#0d1117" stroke-width="2" />
      
      <rect x="260" y="60" width="12" height="12" fill="#58a6ff" rx="3" />
      <text x="280" y="70" fill="#8b949e" font-family="-apple-system,BlinkMacSystemFont,Segoe UI,Helvetica,Arial" font-size="12">Pragash-Mohanarajah</text>
    
      <rect x="260" y="82" width="12" height="12" fill="#3fb950" rx="3" />
      <text x="280" y="92" fill="#8b949e" font-family="-apple-system,BlinkMacSystemFont,Segoe UI,Helvetica,Arial" font-size="12">AxiaFunder</text>
    
      <rect x="260" y="104" width="12" height="12" fill="#f0883e" rx="3" />
      <text x="280" y="114" fill="#8b949e" font-family="-apple-system,BlinkMacSystemFont,Segoe UI,Helvetica,Arial" font-size="12">IB-Integrated-Design-Project-Group-M202</text>
    
      <rect x="260" y="126" width="12" height="12" fill="#bc8cff" rx="3" />
      <text x="280" y="136" fill="#8b949e" font-family="-apple-system,BlinkMacSystemFont,Segoe UI,Helvetica,Arial" font-size="12">hackcambridge</text>
    
      <rect x="260" y="148" width="12" height="12" fill="#ff7b72" rx="3" />
      <text x="280" y="158" fill="#8b949e" font-family="-apple-system,BlinkMacSystemFont,Segoe UI,Helvetica,Arial" font-size="12">supabase</text>
    
      <rect x="260" y="170" width="12" height="12" fill="#6e7681" rx="3" />
      <text x="280" y="180" fill="#8b949e" font-family="-apple-system,BlinkMacSystemFont,Segoe UI,Helvetica,Arial" font-size="12">Can3D-GenAI-Hackathon-Cambridge</text>
    
    </svg>
  