
    <svg width="800" height="280" xmlns="http://www.w3.org/2000/svg">
      <rect width="100%" height="100%" fill="#0d1117" stroke="#30363d" rx="10" />
      <text x="20" y="30" fill="#f0f6fc" font-family="-apple-system,BlinkMacSystemFont,Segoe UI,Helvetica,Arial,sans-serif" font-size="16" font-weight="bold">Workday Rhythm (Punch Card)</text>
      <text x="30" y="66.85714285714286" text-anchor="end" fill="#8b949e" font-family="-apple-system,BlinkMacSystemFont,Segoe UI,Helvetica,Arial,sans-serif" font-size="9">Sun</text><text x="30" y="92.57142857142858" text-anchor="end" fill="#8b949e" font-family="-apple-system,BlinkMacSystemFont,Segoe UI,Helvetica,Arial,sans-serif" font-size="9">Mon</text><text x="30" y="118.28571428571429" text-anchor="end" fill="#8b949e" font-family="-apple-system,BlinkMacSystemFont,Segoe UI,Helvetica,Arial,sans-serif" font-size="9">Tue</text><text x="30" y="144" text-anchor="end" fill="#8b949e" font-family="-apple-system,BlinkMacSystemFont,Segoe UI,Helvetica,Arial,sans-serif" font-size="9">Wed</text><text x="30" y="169.71428571428572" text-anchor="end" fill="#8b949e" font-family="-apple-system,BlinkMacSystemFont,Segoe UI,Helvetica,Arial,sans-serif" font-size="9">Thu</text><text x="30" y="195.42857142857144" text-anchor="end" fill="#8b949e" font-family="-apple-system,BlinkMacSystemFont,Segoe UI,Helvetica,Arial,sans-serif" font-size="9">Fri</text><text x="30" y="221.14285714285714" text-anchor="end" fill="#8b949e" font-family="-apple-system,BlinkMacSystemFont,Segoe UI,Helvetica,Arial,sans-serif" font-size="9">Sat</text>
      <text x="54.166666666666664" y="265" text-anchor="middle" fill="#8b949e" font-family="-apple-system,BlinkMacSystemFont,Segoe UI,Helvetica,Arial,sans-serif" font-size="9">0h</text><text x="224.16666666666666" y="265" text-anchor="middle" fill="#8b949e" font-family="-apple-system,BlinkMacSystemFont,Segoe UI,Helvetica,Arial,sans-serif" font-size="9">6h</text><text x="394.1666666666667" y="265" text-anchor="middle" fill="#8b949e" font-family="-apple-system,BlinkMacSystemFont,Segoe UI,Helvetica,Arial,sans-serif" font-size="9">12h</text><text x="564.1666666666666" y="265" text-anchor="middle" fill="#8b949e" font-family="-apple-system,BlinkMacSystemFont,Segoe UI,Helvetica,Arial,sans-serif" font-size="9">18h</text><text x="705.8333333333333" y="265" text-anchor="middle" fill="#8b949e" font-family="-apple-system,BlinkMacSystemFont,Segoe UI,Helvetica,Arial,sans-serif" font-size="9">23h</text>
      <circle cx="82.5" cy="62.85714285714286" r="0.26785714285714285" fill="#3fb950" opacity="0.8" /><circle cx="195.83333333333331" cy="62.85714285714286" r="0.26785714285714285" fill="#3fb950" opacity="0.8" /><circle cx="252.49999999999997" cy="62.85714285714286" r="0.5357142857142857" fill="#3fb950" opacity="0.8" /><circle cx="280.8333333333333" cy="62.85714285714286" r="0.8035714285714286" fill="#3fb950" opacity="0.8" /><circle cx="309.1666666666667" cy="62.85714285714286" r="1.0714285714285714" fill="#3fb950" opacity="0.8" /><circle cx="337.5" cy="62.85714285714286" r="1.6071428571428572" fill="#3fb950" opacity="0.8" /><circle cx="365.8333333333333" cy="62.85714285714286" r="3.7500000000000004" fill="#3fb950" opacity="0.8" /><circle cx="394.1666666666667" cy="62.85714285714286" r="2.9464285714285716" fill="#3fb950" opacity="0.8" /><circle cx="422.5" cy="62.85714285714286" r="2.9464285714285716" fill="#3fb950" opacity="0.8" /><circle cx="450.8333333333333" cy="62.85714285714286" r="5.089285714285714" fill="#3fb950" opacity="0.8" /><circle cx="479.1666666666667" cy="62.85714285714286" r="3.482142857142857" fill="#3fb950" opacity="0.8" /><circle cx="507.5" cy="62.85714285714286" r="1.3392857142857144" fill="#3fb950" opacity="0.8" /><circle cx="535.8333333333333" cy="62.85714285714286" r="3.482142857142857" fill="#3fb950" opacity="0.8" /><circle cx="564.1666666666666" cy="62.85714285714286" r="5.625" fill="#3fb950" opacity="0.8" /><circle cx="592.4999999999999" cy="62.85714285714286" r="3.482142857142857" fill="#3fb950" opacity="0.8" /><circle cx="620.8333333333333" cy="62.85714285714286" r="4.285714285714286" fill="#3fb950" opacity="0.8" /><circle cx="649.1666666666666" cy="62.85714285714286" r="2.142857142857143" fill="#3fb950" opacity="0.8" /><circle cx="677.4999999999999" cy="62.85714285714286" r="1.0714285714285714" fill="#3fb950" opacity="0.8" /><circle cx="705.8333333333333" cy="62.85714285714286" r="0.26785714285714285" fill="#3fb950" opacity="0.8" /><circle cx="54.166666666666664" cy="88.57142857142858" r="0.5357142857142857" fill="#3fb950" opacity="0.8" /><circle cx="82.5" cy="88.57142857142858" r="0.5357142857142857" fill="#3fb950" opacity="0.8" /><circle cx="167.49999999999997" cy="88.57142857142858" r="0.26785714285714285" fill="#3fb950" opacity="0.8" /><circle cx="224.16666666666666" cy="88.57142857142858" r="0.26785714285714285" fill="#3fb950" opacity="0.8" /><circle cx="252.49999999999997" cy="88.57142857142858" r="0.26785714285714285" fill="#3fb950" opacity="0.8" /><circle cx="280.8333333333333" cy="88.57142857142858" r="1.0714285714285714" fill="#3fb950" opacity="0.8" /><circle cx="309.1666666666667" cy="88.57142857142858" r="1.3392857142857144" fill="#3fb950" opacity="0.8" /><circle cx="337.5" cy="88.57142857142858" r="4.553571428571429" fill="#3fb950" opacity="0.8" /><circle cx="365.8333333333333" cy="88.57142857142858" r="4.017857142857143" fill="#3fb950" opacity="0.8" /><circle cx="394.1666666666667" cy="88.57142857142858" r="6.1607142857142865" fill="#3fb950" opacity="0.8" /><circle cx="422.5" cy="88.57142857142858" r="4.285714285714286" fill="#3fb950" opacity="0.8" /><circle cx="450.8333333333333" cy="88.57142857142858" r="7.232142857142858" fill="#3fb950" opacity="0.8" /><circle cx="479.1666666666667" cy="88.57142857142858" r="9.910714285714286" fill="#3fb950" opacity="0.8" /><circle cx="507.5" cy="88.57142857142858" r="9.107142857142858" fill="#3fb950" opacity="0.8" /><circle cx="535.8333333333333" cy="88.57142857142858" r="4.017857142857143" fill="#3fb950" opacity="0.8" /><circle cx="564.1666666666666" cy="88.57142857142858" r="3.7500000000000004" fill="#3fb950" opacity="0.8" /><circle cx="592.4999999999999" cy="88.57142857142858" r="1.3392857142857144" fill="#3fb950" opacity="0.8" /><circle cx="620.8333333333333" cy="88.57142857142858" r="0.26785714285714285" fill="#3fb950" opacity="0.8" /><circle cx="649.1666666666666" cy="88.57142857142858" r="1.6071428571428572" fill="#3fb950" opacity="0.8" /><circle cx="677.4999999999999" cy="88.57142857142858" r="2.142857142857143" fill="#3fb950" opacity="0.8" /><circle cx="705.8333333333333" cy="88.57142857142858" r="1.6071428571428572" fill="#3fb950" opacity="0.8" /><circle cx="82.5" cy="114.28571428571429" r="0.26785714285714285" fill="#3fb950" opacity="0.8" /><circle cx="167.49999999999997" cy="114.28571428571429" r="0.26785714285714285" fill="#3fb950" opacity="0.8" /><circle cx="224.16666666666666" cy="114.28571428571429" r="0.5357142857142857" fill="#3fb950" opacity="0.8" /><circle cx="252.49999999999997" cy="114.28571428571429" r="0.8035714285714286" fill="#3fb950" opacity="0.8" /><circle cx="280.8333333333333" cy="114.28571428571429" r="1.0714285714285714" fill="#3fb950" opacity="0.8" /><circle cx="309.1666666666667" cy="114.28571428571429" r="4.553571428571429" fill="#3fb950" opacity="0.8" /><circle cx="337.5" cy="114.28571428571429" r="6.1607142857142865" fill="#3fb950" opacity="0.8" /><circle cx="365.8333333333333" cy="114.28571428571429" r="6.1607142857142865" fill="#3fb950" opacity="0.8" /><circle cx="394.1666666666667" cy="114.28571428571429" r="4.821428571428571" fill="#3fb950" opacity="0.8" /><circle cx="422.5" cy="114.28571428571429" r="2.678571428571429" fill="#3fb950" opacity="0.8" /><circle cx="450.8333333333333" cy="114.28571428571429" r="3.7500000000000004" fill="#3fb950" opacity="0.8" /><circle cx="479.1666666666667" cy="114.28571428571429" r="2.4107142857142856" fill="#3fb950" opacity="0.8" /><circle cx="507.5" cy="114.28571428571429" r="6.696428571428572" fill="#3fb950" opacity="0.8" /><circle cx="535.8333333333333" cy="114.28571428571429" r="6.964285714285714" fill="#3fb950" opacity="0.8" /><circle cx="564.1666666666666" cy="114.28571428571429" r="4.285714285714286" fill="#3fb950" opacity="0.8" /><circle cx="592.4999999999999" cy="114.28571428571429" r="0.26785714285714285" fill="#3fb950" opacity="0.8" /><circle cx="620.8333333333333" cy="114.28571428571429" r="2.142857142857143" fill="#3fb950" opacity="0.8" /><circle cx="649.1666666666666" cy="114.28571428571429" r="1.3392857142857144" fill="#3fb950" opacity="0.8" /><circle cx="677.4999999999999" cy="114.28571428571429" r="2.4107142857142856" fill="#3fb950" opacity="0.8" /><circle cx="705.8333333333333" cy="114.28571428571429" r="0.26785714285714285" fill="#3fb950" opacity="0.8" /><circle cx="82.5" cy="140" r="0.26785714285714285" fill="#3fb950" opacity="0.8" /><circle cx="195.83333333333331" cy="140" r="0.26785714285714285" fill="#3fb950" opacity="0.8" /><circle cx="280.8333333333333" cy="140" r="2.678571428571429" fill="#3fb950" opacity="0.8" /><circle cx="309.1666666666667" cy="140" r="3.2142857142857144" fill="#3fb950" opacity="0.8" /><circle cx="337.5" cy="140" r="5.089285714285714" fill="#3fb950" opacity="0.8" /><circle cx="365.8333333333333" cy="140" r="12.857142857142858" fill="#3fb950" opacity="0.8" /><circle cx="394.1666666666667" cy="140" r="11.25" fill="#3fb950" opacity="0.8" /><circle cx="422.5" cy="140" r="4.821428571428571" fill="#3fb950" opacity="0.8" /><circle cx="450.8333333333333" cy="140" r="6.428571428571429" fill="#3fb950" opacity="0.8" /><circle cx="479.1666666666667" cy="140" r="6.696428571428572" fill="#3fb950" opacity="0.8" /><circle cx="507.5" cy="140" r="5.892857142857143" fill="#3fb950" opacity="0.8" /><circle cx="535.8333333333333" cy="140" r="6.1607142857142865" fill="#3fb950" opacity="0.8" /><circle cx="564.1666666666666" cy="140" r="6.696428571428572" fill="#3fb950" opacity="0.8" /><circle cx="620.8333333333333" cy="140" r="2.678571428571429" fill="#3fb950" opacity="0.8" /><circle cx="649.1666666666666" cy="140" r="3.482142857142857" fill="#3fb950" opacity="0.8" /><circle cx="677.4999999999999" cy="140" r="6.1607142857142865" fill="#3fb950" opacity="0.8" /><circle cx="705.8333333333333" cy="140" r="2.9464285714285716" fill="#3fb950" opacity="0.8" /><circle cx="54.166666666666664" cy="165.71428571428572" r="0.26785714285714285" fill="#3fb950" opacity="0.8" /><circle cx="82.5" cy="165.71428571428572" r="0.26785714285714285" fill="#3fb950" opacity="0.8" /><circle cx="195.83333333333331" cy="165.71428571428572" r="0.26785714285714285" fill="#3fb950" opacity="0.8" /><circle cx="252.49999999999997" cy="165.71428571428572" r="0.26785714285714285" fill="#3fb950" opacity="0.8" /><circle cx="280.8333333333333" cy="165.71428571428572" r="2.678571428571429" fill="#3fb950" opacity="0.8" /><circle cx="309.1666666666667" cy="165.71428571428572" r="1.8750000000000002" fill="#3fb950" opacity="0.8" /><circle cx="337.5" cy="165.71428571428572" r="5.625" fill="#3fb950" opacity="0.8" /><circle cx="365.8333333333333" cy="165.71428571428572" r="8.035714285714286" fill="#3fb950" opacity="0.8" /><circle cx="394.1666666666667" cy="165.71428571428572" r="7.767857142857142" fill="#3fb950" opacity="0.8" /><circle cx="422.5" cy="165.71428571428572" r="4.285714285714286" fill="#3fb950" opacity="0.8" /><circle cx="450.8333333333333" cy="165.71428571428572" r="4.285714285714286" fill="#3fb950" opacity="0.8" /><circle cx="479.1666666666667" cy="165.71428571428572" r="8.035714285714286" fill="#3fb950" opacity="0.8" /><circle cx="507.5" cy="165.71428571428572" r="6.964285714285714" fill="#3fb950" opacity="0.8" /><circle cx="535.8333333333333" cy="165.71428571428572" r="2.9464285714285716" fill="#3fb950" opacity="0.8" /><circle cx="564.1666666666666" cy="165.71428571428572" r="4.821428571428571" fill="#3fb950" opacity="0.8" /><circle cx="592.4999999999999" cy="165.71428571428572" r="0.26785714285714285" fill="#3fb950" opacity="0.8" /><circle cx="620.8333333333333" cy="165.71428571428572" r="1.6071428571428572" fill="#3fb950" opacity="0.8" /><circle cx="649.1666666666666" cy="165.71428571428572" r="2.142857142857143" fill="#3fb950" opacity="0.8" /><circle cx="677.4999999999999" cy="165.71428571428572" r="0.26785714285714285" fill="#3fb950" opacity="0.8" /><circle cx="82.5" cy="191.42857142857144" r="1.0714285714285714" fill="#3fb950" opacity="0.8" /><circle cx="195.83333333333331" cy="191.42857142857144" r="0.26785714285714285" fill="#3fb950" opacity="0.8" /><circle cx="252.49999999999997" cy="191.42857142857144" r="0.5357142857142857" fill="#3fb950" opacity="0.8" /><circle cx="280.8333333333333" cy="191.42857142857144" r="0.5357142857142857" fill="#3fb950" opacity="0.8" /><circle cx="309.1666666666667" cy="191.42857142857144" r="1.3392857142857144" fill="#3fb950" opacity="0.8" /><circle cx="337.5" cy="191.42857142857144" r="4.285714285714286" fill="#3fb950" opacity="0.8" /><circle cx="365.8333333333333" cy="191.42857142857144" r="3.2142857142857144" fill="#3fb950" opacity="0.8" /><circle cx="394.1666666666667" cy="191.42857142857144" r="3.482142857142857" fill="#3fb950" opacity="0.8" /><circle cx="422.5" cy="191.42857142857144" r="4.017857142857143" fill="#3fb950" opacity="0.8" /><circle cx="450.8333333333333" cy="191.42857142857144" r="3.482142857142857" fill="#3fb950" opacity="0.8" /><circle cx="479.1666666666667" cy="191.42857142857144" r="6.696428571428572" fill="#3fb950" opacity="0.8" /><circle cx="507.5" cy="191.42857142857144" r="5.892857142857143" fill="#3fb950" opacity="0.8" /><circle cx="535.8333333333333" cy="191.42857142857144" r="6.696428571428572" fill="#3fb950" opacity="0.8" /><circle cx="564.1666666666666" cy="191.42857142857144" r="5.089285714285714" fill="#3fb950" opacity="0.8" /><circle cx="592.4999999999999" cy="191.42857142857144" r="6.696428571428572" fill="#3fb950" opacity="0.8" /><circle cx="620.8333333333333" cy="191.42857142857144" r="1.3392857142857144" fill="#3fb950" opacity="0.8" /><circle cx="649.1666666666666" cy="191.42857142857144" r="4.285714285714286" fill="#3fb950" opacity="0.8" /><circle cx="705.8333333333333" cy="191.42857142857144" r="1.0714285714285714" fill="#3fb950" opacity="0.8" /><circle cx="82.5" cy="217.14285714285714" r="0.26785714285714285" fill="#3fb950" opacity="0.8" /><circle cx="195.83333333333331" cy="217.14285714285714" r="0.26785714285714285" fill="#3fb950" opacity="0.8" /><circle cx="280.8333333333333" cy="217.14285714285714" r="0.26785714285714285" fill="#3fb950" opacity="0.8" /><circle cx="337.5" cy="217.14285714285714" r="0.8035714285714286" fill="#3fb950" opacity="0.8" /><circle cx="365.8333333333333" cy="217.14285714285714" r="0.26785714285714285" fill="#3fb950" opacity="0.8" /><circle cx="394.1666666666667" cy="217.14285714285714" r="0.5357142857142857" fill="#3fb950" opacity="0.8" /><circle cx="422.5" cy="217.14285714285714" r="0.26785714285714285" fill="#3fb950" opacity="0.8" /><circle cx="450.8333333333333" cy="217.14285714285714" r="0.8035714285714286" fill="#3fb950" opacity="0.8" /><circle cx="479.1666666666667" cy="217.14285714285714" r="1.6071428571428572" fill="#3fb950" opacity="0.8" /><circle cx="507.5" cy="217.14285714285714" r="3.2142857142857144" fill="#3fb950" opacity="0.8" /><circle cx="535.8333333333333" cy="217.14285714285714" r="6.1607142857142865" fill="#3fb950" opacity="0.8" /><circle cx="564.1666666666666" cy="217.14285714285714" r="2.4107142857142856" fill="#3fb950" opacity="0.8" /><circle cx="592.4999999999999" cy="217.14285714285714" r="4.285714285714286" fill="#3fb950" opacity="0.8" /><circle cx="620.8333333333333" cy="217.14285714285714" r="0.5357142857142857" fill="#3fb950" opacity="0.8" /><circle cx="649.1666666666666" cy="217.14285714285714" r="0.8035714285714286" fill="#3fb950" opacity="0.8" /><circle cx="677.4999999999999" cy="217.14285714285714" r="0.8035714285714286" fill="#3fb950" opacity="0.8" /><circle cx="705.8333333333333" cy="217.14285714285714" r="1.6071428571428572" fill="#3fb950" opacity="0.8" />
      <text x="570" y="264" fill="#8b949e" font-family="-apple-system,BlinkMacSystemFont,Segoe UI,Helvetica,Arial,sans-serif" font-size="9">Commits:</text>
      
      <circle cx="620" cy="260" r="3.2142857142857144" fill="#3fb950" opacity="0.8" />
      <text x="632" y="264" fill="#8b949e" font-family="-apple-system,BlinkMacSystemFont,Segoe UI,Helvetica,Arial,sans-serif" font-size="9">12</text>
    
      <circle cx="660" cy="260" r="6.428571428571429" fill="#3fb950" opacity="0.8" />
      <text x="672" y="264" fill="#8b949e" font-family="-apple-system,BlinkMacSystemFont,Segoe UI,Helvetica,Arial,sans-serif" font-size="9">24</text>
    
      <circle cx="700" cy="260" r="9.642857142857142" fill="#3fb950" opacity="0.8" />
      <text x="712" y="264" fill="#8b949e" font-family="-apple-system,BlinkMacSystemFont,Segoe UI,Helvetica,Arial,sans-serif" font-size="9">36</text>
    
      <circle cx="740" cy="260" r="12.857142857142858" fill="#3fb950" opacity="0.8" />
      <text x="752" y="264" fill="#8b949e" font-family="-apple-system,BlinkMacSystemFont,Segoe UI,Helvetica,Arial,sans-serif" font-size="9">48</text>
    
    </svg>
  